<svg width="120" height="195" viewBox="0 0 120 195" fill="none" xmlns="http://www.w3.org/2000/svg">
<path d="M0 72C0 38.8629 26.8629 12 60 12H110C115.523 12 120 16.4772 120 22V152C120 157.523 115.523 162 110 162H10C4.47715 162 0 157.523 0 152V72Z" fill="#613583"/>
<path d="M0 60C0 26.8629 26.8629 0 60 0H110C115.523 0 120 4.47715 120 10V140C120 145.523 115.523 150 110 150H10C4.47715 150 0 145.523 0 140V60Z" fill="#813D9C"/>
<rect x="36" y="155" width="49" height="40" fill="#464448"/>
<rect x="36" y="152" width="49" height="37" fill="#5E5C64"/>
<rect x="69" y="163" width="7" height="15" fill="#D9D9D9"/>
<rect x="47" y="163" width="7" height="15" fill="#D9D9D9"/>
<path d="M74.4964 30.1057L25.3814 79.4423L46.4788 100.593H46.5749L53.303 93.8482L38.9818 79.4423L88.0007 30.1057H74.4964Z" fill="#EF69FF"/>
<path d="M45.8541 128.779L94.9691 79.4423L73.7757 58.1948L66.9995 64.9882L81.3688 79.4423L32.2057 128.779H45.8541Z" fill="#EF69FF"/>
</svg>
