<svg width="121" height="80" viewBox="0 0 121 80" fill="none" xmlns="http://www.w3.org/2000/svg">
<g clip-path="url(#clip0_42_356)">
<path d="M121 0H0V80H121V0Z" fill="#0B0021"/>
<path d="M121 64.8989C115.132 60.9734 109.265 57.0532 102.85 55.3936C96.4407 53.734 89.4896 54.3457 82.855 52.0691C76.2204 49.7979 69.9076 44.6383 68.0572 38.1489C66.2122 31.6543 68.8295 23.8245 67.4887 17.2447C66.1532 10.6596 60.8541 5.32979 55.5603 0H121V64.8989Z" fill="#110B2F"/>
<path d="M121 56.7872C115.867 53.3564 110.729 49.9202 105.119 48.4681C99.5086 47.0213 93.4265 47.5532 87.6232 45.5585C81.8199 43.5691 76.2902 39.0585 74.6757 33.3777C73.056 27.6968 75.3515 20.8457 74.1769 15.0851C73.0077 9.32979 68.3737 4.66489 63.7396 0H121V56.7872Z" fill="#1F174C"/>
<path d="M121 48.6755C116.597 45.734 112.199 42.7872 107.388 41.5479C102.582 40.3032 97.3633 40.7553 92.3913 39.0532C87.414 37.3457 82.6781 33.4787 81.2943 28.6117C79.9052 23.7394 81.8736 17.867 80.8706 12.9308C79.8623 7.99468 75.8933 4 71.9189 0H121V48.6755Z" fill="#32206B"/>
<path d="M121 40.5638C117.331 38.1117 113.663 35.6596 109.656 34.6223C105.65 33.5851 101.305 33.9628 97.1594 32.5426C93.0134 31.1223 89.0659 27.8989 87.9127 23.8404C86.7542 19.7819 88.3954 14.8883 87.5587 10.7766C86.722 6.66489 83.4074 3.32979 80.0981 0H121V40.5638Z" fill="#49298B"/>
<path d="M121 32.4521C118.066 30.4894 115.132 28.5266 111.925 27.6968C108.718 26.867 105.242 27.1702 101.928 26.0372C98.6075 24.8989 95.4538 22.3191 94.5313 19.0745C93.6034 15.8245 94.9121 11.9096 94.247 8.62234C93.5766 5.32979 90.927 2.66489 88.2775 0H121V32.4521Z" fill="#6231AB"/>
<path d="M121 24.3351C118.801 22.867 116.597 21.3936 114.194 20.7713C111.791 20.1489 109.184 20.3777 106.696 19.5266C104.207 18.6755 101.842 16.7394 101.144 14.3032C100.453 11.8723 101.434 8.93617 100.935 6.46809C100.431 4 98.4466 2 96.4622 0H121V24.3351Z" fill="#7F37CB"/>
<path d="M121 16.2234C119.53 15.2447 118.066 14.2606 116.463 13.8511C114.859 13.4362 113.121 13.5851 111.464 13.016C109.807 12.4468 108.224 11.1596 107.763 9.53723C107.302 7.91489 107.956 5.95745 107.624 4.30851C107.286 2.66489 105.966 1.33511 104.641 0H121V16.2234Z" fill="#9E3BEA"/>
<path d="M121 8.1117C120.265 7.62234 119.531 7.13298 118.731 6.92553C117.932 6.71808 117.063 6.79255 116.232 6.51064C115.401 6.2234 114.612 5.57979 114.382 4.76596C114.151 3.95745 114.478 2.97872 114.312 2.15426C114.146 1.33511 113.481 0.664894 112.821 0H121V8.1117Z" fill="#AF3CFA"/>
<path d="M0 15.1011C7.02079 15.4894 14.0362 15.8723 20.2203 18.2766C26.4044 20.6809 31.7571 25.0958 37.2332 29.1809C42.7094 33.2606 48.3088 37.016 52.6318 42.0745C56.9601 47.1383 60.0066 53.5053 61.9267 60.0479C63.8468 66.5851 64.646 73.2926 65.4398 80H0V15.1011Z" fill="#110B2F"/>
<path d="M0 23.2129C6.14118 23.5533 12.2824 23.8884 17.6941 25.9895C23.1059 28.0959 27.7882 31.9576 32.5777 35.532C37.3673 39.1065 42.2695 42.3884 46.0562 46.814C49.8374 51.2448 52.5031 56.8193 54.1872 62.5374C55.866 68.2608 56.5632 74.1331 57.2605 80.0001H0V23.2129Z" fill="#1F174C"/>
<path d="M0 31.3245C5.26693 31.617 10.5285 31.9042 15.1679 33.7074C19.8073 35.5106 23.8192 38.8191 27.9223 41.883C32.0307 44.9468 36.2303 47.7606 39.4752 51.5585C42.7201 55.3511 45.0049 60.1276 46.4423 65.0319C47.8851 69.9362 48.4805 74.9681 49.0812 80H0V31.3245Z" fill="#32206B"/>
<path d="M0 39.4363C4.38732 39.681 8.77465 39.9203 12.6363 41.4203C16.5034 42.9256 19.8502 45.6863 23.2721 48.2342C26.694 50.7873 30.191 53.1331 32.8942 56.298C35.5974 59.4629 37.5014 63.4416 38.7028 67.5267C39.9043 71.6171 40.4031 75.8086 40.9019 80.0001H0V39.4363Z" fill="#49298B"/>
<path d="M0 47.5479C3.50771 47.7447 7.02079 47.9361 10.1102 49.1383C13.2049 50.3404 15.8759 52.5478 18.6166 54.5904C21.352 56.633 24.1571 58.5053 26.3186 61.0372C28.4801 63.5691 30.0033 66.7553 30.9633 70.0213C31.9234 73.2925 32.3203 76.6436 32.7226 80H0V47.5479Z" fill="#6231AB"/>
<path d="M0 55.6648C2.63347 55.8084 5.26693 55.952 7.58395 56.851C9.90097 57.7552 11.9069 59.4095 13.9611 60.9414C16.0153 62.4733 18.1178 63.8829 19.7376 65.7765C21.3574 67.6754 22.4998 70.0637 23.2238 72.5159C23.9426 74.968 24.2429 77.4839 24.5379 79.9999H0V55.6648Z" fill="#7F37CB"/>
<path d="M0 63.7766C1.75386 63.8724 3.50771 63.9681 5.05776 64.5692C6.60244 65.1702 7.93794 66.2713 9.30563 67.2926C10.6787 68.3138 12.0785 69.2553 13.1566 70.5213C14.24 71.7819 15.0016 73.3777 15.479 75.0107C15.9617 76.6436 16.1602 78.3245 16.3586 80H0V63.7766Z" fill="#9E3BEA"/>
<path d="M0 71.8882C0.87961 71.9361 1.75386 71.9839 2.5262 72.2818C3.29854 72.585 3.96897 73.1382 4.6555 73.6488C5.33666 74.1595 6.03927 74.6275 6.58098 75.2605C7.11733 75.8935 7.49814 76.6861 7.73949 77.5052C7.98085 78.3244 8.08276 79.1595 8.1793 79.9999H0V71.8882Z" fill="#AF3CFA"/>
<rect x="8" y="-1" width="121" height="5" fill="black"/>
<g filter="url(#filter0_d_42_356)">
<rect x="17" y="43" width="31" height="25" rx="3" fill="#3D3846"/>
</g>
<g filter="url(#filter1_d_42_356)">
<path d="M57 19C57 17.3431 58.3431 16 60 16H104C105.657 16 107 17.3431 107 19V53C107 54.6569 105.657 56 104 56H60C58.3431 56 57 54.6569 57 53V19Z" fill="#3D3846"/>
</g>
</g>
<defs>
<filter id="filter0_d_42_356" x="13" y="40" width="39" height="33" filterUnits="userSpaceOnUse" color-interpolation-filters="sRGB">
<feFlood flood-opacity="0" result="BackgroundImageFix"/>
<feColorMatrix in="SourceAlpha" type="matrix" values="0 0 0 0 0 0 0 0 0 0 0 0 0 0 0 0 0 0 127 0" result="hardAlpha"/>
<feOffset dy="1"/>
<feGaussianBlur stdDeviation="2"/>
<feComposite in2="hardAlpha" operator="out"/>
<feColorMatrix type="matrix" values="0 0 0 0 0 0 0 0 0 0 0 0 0 0 0 0 0 0 0.25 0"/>
<feBlend mode="normal" in2="BackgroundImageFix" result="effect1_dropShadow_42_356"/>
<feBlend mode="normal" in="SourceGraphic" in2="effect1_dropShadow_42_356" result="shape"/>
</filter>
<filter id="filter1_d_42_356" x="53" y="13" width="58" height="48" filterUnits="userSpaceOnUse" color-interpolation-filters="sRGB">
<feFlood flood-opacity="0" result="BackgroundImageFix"/>
<feColorMatrix in="SourceAlpha" type="matrix" values="0 0 0 0 0 0 0 0 0 0 0 0 0 0 0 0 0 0 127 0" result="hardAlpha"/>
<feOffset dy="1"/>
<feGaussianBlur stdDeviation="2"/>
<feComposite in2="hardAlpha" operator="out"/>
<feColorMatrix type="matrix" values="0 0 0 0 0 0 0 0 0 0 0 0 0 0 0 0 0 0 0.25 0"/>
<feBlend mode="normal" in2="BackgroundImageFix" result="effect1_dropShadow_42_356"/>
<feBlend mode="normal" in="SourceGraphic" in2="effect1_dropShadow_42_356" result="shape"/>
</filter>
<clipPath id="clip0_42_356">
<rect width="121" height="80" rx="9" fill="white"/>
</clipPath>
</defs>
</svg>
