<svg width="122" height="81" viewBox="0 0 122 81" fill="none" xmlns="http://www.w3.org/2000/svg">
<g clip-path="url(#clip0_42_229)">
<path d="M121.134 0H0V80.5412H121.134V0Z" fill="#BF56FF"/>
<path d="M121.134 65.338C115.26 61.3859 109.386 57.4392 102.964 55.7684C96.5475 54.0976 89.5887 54.7134 82.9468 52.4214C76.3048 50.1348 69.985 44.9403 68.1326 38.407C66.2855 31.8684 68.9058 23.9857 67.5634 17.3613C66.2264 10.7317 60.9214 5.36585 55.6218 0H121.134V65.338Z" fill="#AF3CFA"/>
<path d="M121.134 57.1714C115.996 53.7174 110.852 50.2579 105.235 48.796C99.6188 47.3394 93.5299 47.8749 87.7202 45.8667C81.9105 43.8639 76.3746 39.3228 74.7584 33.6035C73.1369 27.8842 75.435 20.9868 74.2591 15.1872C73.0885 9.39291 68.4494 4.69645 63.8102 0H121.134V57.1714Z" fill="#9E3BEA"/>
<path d="M121.134 49.0048C116.726 46.0435 112.323 43.0767 107.506 41.829C102.695 40.5759 97.471 41.0311 92.4936 39.3174C87.5108 37.5984 82.7696 33.7052 81.3843 28.8053C79.9936 23.9 81.9642 17.9879 80.9601 13.0183C79.9506 8.04877 75.9773 4.02706 71.9985 0H121.134V49.0048Z" fill="#7F37CB"/>
<path d="M121.134 40.8383C117.461 38.3695 113.789 35.9008 109.778 34.8566C105.767 33.8123 101.418 34.1925 97.267 32.7627C93.1164 31.3329 89.1645 28.0877 88.0101 24.0017C86.8503 19.9157 88.4934 14.989 87.6557 10.8495C86.8181 6.70998 83.4998 3.35231 80.1869 0H121.134V40.8383Z" fill="#6231AB"/>
<path d="M121.134 32.6717C118.197 30.6956 115.26 28.7196 112.049 27.8842C108.838 27.0488 105.359 27.354 102.04 26.2134C98.7167 25.0674 95.5595 22.4701 94.636 19.2035C93.7071 15.9315 95.0172 11.9901 94.3514 8.68067C93.6802 5.36585 91.0277 2.68292 88.3752 0H121.134V32.6717Z" fill="#49298B"/>
<path d="M121.134 24.4997C118.933 23.0217 116.726 21.5384 114.32 20.9118C111.915 20.2853 109.305 20.5155 106.814 19.6587C104.322 18.8019 101.954 16.8526 101.256 14.4C100.564 11.9527 101.546 8.99663 101.047 6.51184C100.542 4.02706 98.5557 2.01353 96.569 0H121.134V24.4997Z" fill="#32206B"/>
<path d="M121.134 16.3332C119.663 15.3478 118.197 14.3571 116.592 13.9448C114.986 13.5271 113.246 13.677 111.587 13.104C109.928 12.531 108.344 11.2351 107.882 9.60176C107.421 7.96844 108.076 5.99775 107.743 4.33766C107.404 2.68292 106.084 1.34414 104.757 0H121.134V16.3332Z" fill="#1F174C"/>
<path d="M121.134 8.16658C120.398 7.67391 119.663 7.18124 118.863 6.97239C118.063 6.76354 117.193 6.83851 116.361 6.55469C115.528 6.26551 114.739 5.61754 114.508 4.7982C114.277 3.98422 114.605 2.99888 114.438 2.16883C114.272 1.34414 113.606 0.669392 112.946 0H121.134V8.16658Z" fill="#110B2F"/>
<path d="M0 15.2031C7.02856 15.594 14.0518 15.9796 20.2427 18.4001C26.4336 20.8207 31.7923 25.2654 37.2745 29.3782C42.7567 33.4856 48.3623 37.2663 52.6901 42.359C57.0232 47.4571 60.073 53.8672 61.9953 60.454C63.9175 67.0355 64.7176 73.7883 65.5122 80.5411H0V15.2031Z" fill="#AF3CFA"/>
<path d="M0 23.3699C6.14798 23.7126 12.296 24.05 17.7137 26.1653C23.1314 28.2859 27.8189 32.1737 32.6138 35.7724C37.4087 39.371 42.3164 42.6751 46.1072 47.1306C49.8926 51.5914 52.5612 57.2036 54.2472 62.9604C55.9278 68.7225 56.6259 74.6346 57.3239 80.5413H0V23.3699Z" fill="#9E3BEA"/>
<path d="M0 31.5364C5.27277 31.8309 10.5402 32.1201 15.1847 33.9355C19.8293 35.7509 23.8456 39.0818 27.9532 42.1663C32.0661 45.2509 36.2704 48.0837 39.5189 51.9073C42.7674 55.7255 45.0548 60.5344 46.4938 65.4719C47.9381 70.4093 48.5341 75.4753 49.1355 80.5412H0V31.5364Z" fill="#7F37CB"/>
<path d="M0 39.7029C4.39218 39.9492 8.78436 40.1902 12.6503 41.7003C16.5217 43.2158 19.8722 45.9952 23.2979 48.5603C26.7236 51.1307 30.2244 53.4924 32.9306 56.6787C35.6368 59.865 37.543 63.8706 38.7457 67.9833C39.9485 72.1014 40.4478 76.3213 40.9472 80.5411H0V39.7029Z" fill="#6231AB"/>
<path d="M0 47.8696C3.5116 48.0678 7.02857 48.2606 10.1213 49.4708C13.2195 50.6811 15.8935 52.9035 18.6372 54.9598C21.3756 57.0162 24.1838 58.9012 26.3477 61.4503C28.5116 63.9993 30.0365 67.207 30.9976 70.4951C31.9588 73.7885 32.3561 77.1622 32.7588 80.5413H0V47.8696Z" fill="#49298B"/>
<path d="M0 56.0415C2.63638 56.1861 5.27277 56.3307 7.59235 57.2357C9.91194 58.1461 11.9201 59.8115 13.9766 61.3538C16.0331 62.8961 18.1379 64.3152 19.7595 66.2216C21.381 68.1334 22.5247 70.5379 23.2496 73.0066C23.9691 75.4753 24.2698 78.0083 24.5651 80.5412H0V56.0415Z" fill="#32206B"/>
<path d="M0 64.208C1.7558 64.3044 3.5116 64.4008 5.06336 65.0059C6.60975 65.6111 7.94673 66.7196 9.31594 67.7478C10.6905 68.7759 12.0919 69.7238 13.1712 70.9983C14.2558 72.2675 15.0183 73.874 15.4961 75.5181C15.9794 77.1621 16.178 78.8543 16.3767 80.5412H0V64.208Z" fill="#1F174C"/>
<path d="M0 72.3748C0.880584 72.423 1.7558 72.4711 2.52899 72.771C3.30219 73.0763 3.97337 73.6332 4.66065 74.1473C5.34257 74.6614 6.04596 75.1327 6.58827 75.7699C7.12521 76.4072 7.50644 77.2051 7.74807 78.0298C7.98969 78.8545 8.09171 79.6952 8.18836 80.5413H0V72.3748Z" fill="#110B2F"/>
<rect x="0.0670166" y="75.0669" width="121" height="6" fill="#3D3846"/>
<g filter="url(#filter0_d_42_229)">
<rect x="48" y="37" width="31" height="25" rx="3" fill="#DEDDDA"/>
</g>
<g filter="url(#filter1_d_42_229)">
<rect x="63" y="17" width="50" height="40" rx="5" fill="#DEDDDA"/>
</g>
<g filter="url(#filter2_d_42_229)">
<rect x="2" y="36" width="33" height="37" rx="3" fill="#DEDDDA"/>
</g>
</g>
<defs>
<filter id="filter0_d_42_229" x="44" y="34" width="39" height="33" filterUnits="userSpaceOnUse" color-interpolation-filters="sRGB">
<feFlood flood-opacity="0" result="BackgroundImageFix"/>
<feColorMatrix in="SourceAlpha" type="matrix" values="0 0 0 0 0 0 0 0 0 0 0 0 0 0 0 0 0 0 127 0" result="hardAlpha"/>
<feOffset dy="1"/>
<feGaussianBlur stdDeviation="2"/>
<feComposite in2="hardAlpha" operator="out"/>
<feColorMatrix type="matrix" values="0 0 0 0 0 0 0 0 0 0 0 0 0 0 0 0 0 0 0.25 0"/>
<feBlend mode="normal" in2="BackgroundImageFix" result="effect1_dropShadow_42_229"/>
<feBlend mode="normal" in="SourceGraphic" in2="effect1_dropShadow_42_229" result="shape"/>
</filter>
<filter id="filter1_d_42_229" x="59" y="14" width="58" height="48" filterUnits="userSpaceOnUse" color-interpolation-filters="sRGB">
<feFlood flood-opacity="0" result="BackgroundImageFix"/>
<feColorMatrix in="SourceAlpha" type="matrix" values="0 0 0 0 0 0 0 0 0 0 0 0 0 0 0 0 0 0 127 0" result="hardAlpha"/>
<feOffset dy="1"/>
<feGaussianBlur stdDeviation="2"/>
<feComposite in2="hardAlpha" operator="out"/>
<feColorMatrix type="matrix" values="0 0 0 0 0 0 0 0 0 0 0 0 0 0 0 0 0 0 0.25 0"/>
<feBlend mode="normal" in2="BackgroundImageFix" result="effect1_dropShadow_42_229"/>
<feBlend mode="normal" in="SourceGraphic" in2="effect1_dropShadow_42_229" result="shape"/>
</filter>
<filter id="filter2_d_42_229" x="-2" y="33" width="41" height="45" filterUnits="userSpaceOnUse" color-interpolation-filters="sRGB">
<feFlood flood-opacity="0" result="BackgroundImageFix"/>
<feColorMatrix in="SourceAlpha" type="matrix" values="0 0 0 0 0 0 0 0 0 0 0 0 0 0 0 0 0 0 127 0" result="hardAlpha"/>
<feOffset dy="1"/>
<feGaussianBlur stdDeviation="2"/>
<feComposite in2="hardAlpha" operator="out"/>
<feColorMatrix type="matrix" values="0 0 0 0 0 0 0 0 0 0 0 0 0 0 0 0 0 0 0.25 0"/>
<feBlend mode="normal" in2="BackgroundImageFix" result="effect1_dropShadow_42_229"/>
<feBlend mode="normal" in="SourceGraphic" in2="effect1_dropShadow_42_229" result="shape"/>
</filter>
<clipPath id="clip0_42_229">
<rect width="121.134" height="80.5412" rx="9" fill="white"/>
</clipPath>
</defs>
</svg>
