<svg width="119" height="129" viewBox="0 0 119 129" fill="none" xmlns="http://www.w3.org/2000/svg">
<g clip-path="url(#clip0_112_187)">
<path d="M52.4182 75.9702H65.9916C67.6202 75.9702 68.9421 77.2877 68.9421 78.9109V91.8513C68.9421 93.4745 67.6202 94.792 65.9916 94.792H52.4182C50.7897 94.792 49.4678 93.4745 49.4678 91.8513V78.9109C49.4678 77.2877 50.7897 75.9702 52.4182 75.9702Z" fill="#5E5C64"/>
<path d="M51.2381 86.5571H67.1718C68.1489 86.5571 68.9421 87.3476 68.9421 88.3216V93.0273C68.9421 94.0012 68.1489 94.7917 67.1718 94.7917H51.2381C50.2609 94.7917 49.4678 94.0012 49.4678 93.0273V88.3216C49.4678 87.3476 50.2609 86.5571 51.2381 86.5571Z" fill="#3D3846"/>
<path d="M7.56694 2.44531H111.433C114.364 2.44531 116.744 4.81745 116.744 7.7392V74.2048C116.744 77.1265 114.364 79.4987 111.433 79.4987H7.56694C4.6361 79.4987 2.2561 77.1265 2.2561 74.2048V7.7392C2.2561 4.81745 4.6361 2.44531 7.56694 2.44531Z" fill="#241F31"/>
<path d="M104.941 104.792C107.872 104.792 110.252 107.164 110.252 110.085V115.967C110.252 118.889 107.872 121.261 104.941 121.261C102.01 121.261 99.63 118.889 99.63 115.967V110.085C99.63 107.164 102.01 104.792 104.941 104.792Z" fill="#241F31"/>
<path d="M104.941 103.027C107.872 103.027 110.252 105.398 110.252 108.32V114.202C110.252 117.124 107.872 119.496 104.941 119.496C102.01 119.496 99.63 117.124 99.63 114.202V108.32C99.63 105.398 102.01 103.027 104.941 103.027Z" fill="#3D3846"/>
<path d="M27.6319 100.674H91.9581C93.9124 100.674 95.4987 102.255 95.4987 104.203V120.672C95.4987 122.62 93.9124 124.202 91.9581 124.202H27.6319C25.6776 124.202 24.0913 122.62 24.0913 120.672V104.203C24.0913 102.255 25.6776 100.674 27.6319 100.674Z" fill="#241F31"/>
<path d="M27.6319 98.9092H91.9581C93.9124 98.9092 95.4987 100.491 95.4987 102.439V118.908C95.4987 120.856 93.9124 122.437 91.9581 122.437H27.6319C25.6776 122.437 24.0913 120.856 24.0913 118.908V102.439C24.0913 100.491 25.6776 98.9092 27.6319 98.9092Z" fill="#3D3846"/>
<path fill-rule="evenodd" clip-rule="evenodd" d="M25.8616 102.733C25.8616 101.596 26.7872 100.674 27.9269 100.674C29.0672 100.674 29.9928 101.596 29.9928 102.733C29.9928 103.869 29.0672 104.791 27.9269 104.791C26.7872 104.791 25.8616 103.869 25.8616 102.733ZM31.173 102.733C31.173 101.596 32.0986 100.674 33.2383 100.674C34.3787 100.674 35.3043 101.596 35.3043 102.733C35.3043 103.869 34.3787 104.791 33.2383 104.791C32.0986 104.791 31.173 103.869 31.173 102.733ZM38.2547 107.941C38.2547 109.078 37.3297 110 36.1894 110C35.0485 110 34.1235 109.078 34.1235 107.941C34.1235 106.804 35.0485 105.883 36.1894 105.883C37.3297 105.883 38.2547 106.804 38.2547 107.941ZM40.6151 113.32C40.6151 114.457 39.6907 115.379 38.5498 115.379C37.4089 115.379 36.4845 114.457 36.4845 113.32C36.4845 112.183 37.4089 111.262 38.5498 111.262C39.6907 111.262 40.6151 112.183 40.6151 113.32ZM30.2879 118.614C30.2879 119.751 29.3629 120.672 28.2219 120.672C27.0816 120.672 26.1566 119.751 26.1566 118.614C26.1566 117.477 27.0816 116.556 28.2219 116.556C29.3629 116.556 30.2879 117.477 30.2879 118.614ZM82.5154 118.614C82.5154 119.751 81.591 120.672 80.4501 120.672C79.3091 120.672 78.3847 119.751 78.3847 118.614C78.3847 117.477 79.3091 116.556 80.4501 116.556C81.591 116.556 82.5154 117.477 82.5154 118.614ZM35.3043 118.614C35.3043 119.751 34.3793 120.672 33.2383 120.672C32.0974 120.672 31.173 119.751 31.173 118.614C31.173 117.477 32.0974 116.556 33.2383 116.556C34.3793 116.556 35.3043 117.477 35.3043 118.614ZM77.2045 118.614C77.2045 119.751 76.2795 120.672 75.1386 120.672C73.9983 120.672 73.0733 119.751 73.0733 118.614C73.0733 117.477 73.9983 116.556 75.1386 116.556C76.2795 116.556 77.2045 117.477 77.2045 118.614ZM45.9266 113.32C45.9266 114.457 45.0016 115.379 43.8612 115.379C42.7203 115.379 41.7953 114.457 41.7953 113.32C41.7953 112.183 42.7203 111.262 43.8612 111.262C45.0016 111.262 45.9266 112.183 45.9266 113.32ZM51.238 113.32C51.238 114.457 50.313 115.379 49.1727 115.379C48.0318 115.379 47.1068 114.457 47.1068 113.32C47.1068 112.183 48.0318 111.262 49.1727 111.262C50.313 111.262 51.238 112.183 51.238 113.32ZM56.5495 113.32C56.5495 114.457 55.6245 115.379 54.4835 115.379C53.3432 115.379 52.4182 114.457 52.4182 113.32C52.4182 112.183 53.3432 111.262 54.4835 111.262C55.6245 111.262 56.5495 112.183 56.5495 113.32ZM61.8603 113.32C61.8603 114.457 60.9359 115.379 59.795 115.379C58.654 115.379 57.7296 114.457 57.7296 113.32C57.7296 112.183 58.654 111.262 59.795 111.262C60.9359 111.262 61.8603 112.183 61.8603 113.32ZM67.1718 113.32C67.1718 114.457 66.2474 115.379 65.1064 115.379C63.9655 115.379 63.0411 114.457 63.0411 113.32C63.0411 112.183 63.9655 111.262 65.1064 111.262C66.2474 111.262 67.1718 112.183 67.1718 113.32ZM72.4832 113.32C72.4832 114.457 71.5582 115.379 70.4179 115.379C69.2769 115.379 68.3519 114.457 68.3519 113.32C68.3519 112.183 69.2769 111.262 70.4179 111.262C71.5582 111.262 72.4832 112.183 72.4832 113.32ZM77.7946 113.32C77.7946 114.457 76.8696 115.379 75.7287 115.379C74.5884 115.379 73.6634 114.457 73.6634 113.32C73.6634 112.183 74.5884 111.262 75.7287 111.262C76.8696 111.262 77.7946 112.183 77.7946 113.32ZM83.1055 113.32C83.1055 114.457 82.1811 115.379 81.0402 115.379C79.8992 115.379 78.9748 114.457 78.9748 113.32C78.9748 112.183 79.8992 111.262 81.0402 111.262C82.1811 111.262 83.1055 112.183 83.1055 113.32ZM39.4349 108.026C39.4349 106.89 40.3606 105.968 41.5003 105.968C42.6406 105.968 43.5662 106.89 43.5662 108.026C43.5662 109.163 42.6406 110.085 41.5003 110.085C40.3606 110.085 39.4349 109.163 39.4349 108.026ZM44.7464 108.026C44.7464 106.89 45.672 105.968 46.8117 105.968C47.952 105.968 48.877 106.89 48.877 108.026C48.877 109.163 47.952 110.085 46.8117 110.085C45.672 110.085 44.7464 109.163 44.7464 108.026ZM50.0578 108.026C50.0578 106.89 50.9828 105.968 52.1232 105.968C53.2629 105.968 54.1885 106.89 54.1885 108.026C54.1885 109.163 53.2629 110.085 52.1232 110.085C50.9828 110.085 50.0578 109.163 50.0578 108.026ZM55.3687 108.026C55.3687 106.89 56.2943 105.968 57.4346 105.968C58.5743 105.968 59.4999 106.89 59.4999 108.026C59.4999 109.163 58.5743 110.085 57.4346 110.085C56.2943 110.085 55.3687 109.163 55.3687 108.026ZM60.6801 108.026C60.6801 106.89 61.6057 105.968 62.7454 105.968C63.8858 105.968 64.8114 106.89 64.8114 108.026C64.8114 109.163 63.8858 110.085 62.7454 110.085C61.6057 110.085 60.6801 109.163 60.6801 108.026ZM65.9916 108.026C65.9916 106.89 66.9172 105.968 68.0569 105.968C69.1972 105.968 70.1228 106.89 70.1228 108.026C70.1228 109.163 69.1972 110.085 68.0569 110.085C66.9172 110.085 65.9916 109.163 65.9916 108.026ZM71.303 108.026C71.303 106.89 72.2286 105.968 73.3683 105.968C74.508 105.968 75.4337 106.89 75.4337 108.026C75.4337 109.163 74.508 110.085 73.3683 110.085C72.2286 110.085 71.303 109.163 71.303 108.026ZM76.6138 108.026C76.6138 106.89 77.5395 105.968 78.6798 105.968C79.8195 105.968 80.7451 106.89 80.7451 108.026C80.7451 109.163 79.8195 110.085 78.6798 110.085C77.5395 110.085 76.6138 109.163 76.6138 108.026ZM81.9253 108.026C81.9253 106.89 82.8509 105.968 83.9912 105.968C85.1309 105.968 86.0566 106.89 86.0566 108.026C86.0566 109.163 85.1309 110.085 83.9912 110.085C82.8509 110.085 81.9253 109.163 81.9253 108.026ZM36.4845 102.733C36.4845 101.596 37.4101 100.674 38.5498 100.674C39.6895 100.674 40.6151 101.596 40.6151 102.733C40.6151 103.869 39.6895 104.791 38.5498 104.791C37.4101 104.791 36.4845 103.869 36.4845 102.733ZM41.7953 102.733C41.7953 101.596 42.7209 100.674 43.8612 100.674C45.0009 100.674 45.9266 101.596 45.9266 102.733C45.9266 103.869 45.0009 104.791 43.8612 104.791C42.7209 104.791 41.7953 103.869 41.7953 102.733ZM47.1068 102.733C47.1068 101.596 48.0324 100.674 49.1727 100.674C50.3124 100.674 51.238 101.596 51.238 102.733C51.238 103.869 50.3124 104.791 49.1727 104.791C48.0324 104.791 47.1068 103.869 47.1068 102.733ZM52.4182 102.733C52.4182 101.596 53.3438 100.674 54.4835 100.674C55.6238 100.674 56.5495 101.596 56.5495 102.733C56.5495 103.869 55.6238 104.791 54.4835 104.791C53.3438 104.791 52.4182 103.869 52.4182 102.733ZM57.7296 102.733C57.7296 101.596 58.6553 100.674 59.795 100.674C60.9353 100.674 61.8603 101.596 61.8603 102.733C61.8603 103.869 60.9353 104.791 59.795 104.791C58.6553 104.791 57.7296 103.869 57.7296 102.733ZM63.0411 102.733C63.0411 101.596 63.9661 100.674 65.1064 100.674C66.2461 100.674 67.1718 101.596 67.1718 102.733C67.1718 103.869 66.2461 104.791 65.1064 104.791C63.9661 104.791 63.0411 103.869 63.0411 102.733ZM68.3519 102.733C68.3519 101.596 69.2776 100.674 70.4179 100.674C71.5576 100.674 72.4832 101.596 72.4832 102.733C72.4832 103.869 71.5576 104.791 70.4179 104.791C69.2776 104.791 68.3519 103.869 68.3519 102.733ZM73.6634 102.733C73.6634 101.596 74.589 100.674 75.7287 100.674C76.869 100.674 77.7946 101.596 77.7946 102.733C77.7946 103.869 76.869 104.791 75.7287 104.791C74.589 104.791 73.6634 103.869 73.6634 102.733ZM78.9748 102.733C78.9748 101.596 79.9005 100.674 81.0402 100.674C82.1805 100.674 83.1055 101.596 83.1055 102.733C83.1055 103.869 82.1805 104.791 81.0402 104.791C79.9005 104.791 78.9748 103.869 78.9748 102.733ZM84.2863 102.733C84.2863 101.596 85.2113 100.674 86.3516 100.674C87.4913 100.674 88.4169 101.596 88.4169 102.733C88.4169 103.869 87.4913 104.791 86.3516 104.791C85.2113 104.791 84.2863 103.869 84.2863 102.733ZM89.5971 102.733C89.5971 101.596 90.5227 100.674 91.6631 100.674C92.8028 100.674 93.7284 101.596 93.7284 102.733C93.7284 103.869 92.8028 104.791 91.6631 104.791C90.5227 104.791 89.5971 103.869 89.5971 102.733ZM87.2367 108.026C87.2367 106.89 88.1618 105.968 89.3021 105.968H91.6631C92.8034 105.968 93.7284 106.89 93.7284 108.026C93.7284 109.163 92.8034 110.085 91.6631 110.085H89.3021C88.1618 110.085 87.2367 109.163 87.2367 108.026ZM26.4517 108.026C26.4517 106.89 27.3767 105.968 28.5176 105.968H30.878C32.0189 105.968 32.9433 106.89 32.9433 108.026C32.9433 109.163 32.0189 110.085 30.878 110.085H28.5176C27.3767 110.085 26.4517 109.163 26.4517 108.026ZM25.8616 113.32C25.8616 112.183 26.7866 111.262 27.9269 111.262H33.2383C34.3793 111.262 35.3043 112.183 35.3043 113.32C35.3043 114.457 34.3793 115.379 33.2383 115.379H27.9269C26.7866 115.379 25.8616 114.457 25.8616 113.32ZM36.4845 118.614C36.4845 117.477 37.4089 116.556 38.5498 116.556H43.8612C45.0016 116.556 45.9266 117.477 45.9266 118.614C45.9266 119.751 45.0016 120.672 43.8612 120.672H38.5498C37.4089 120.672 36.4845 119.751 36.4845 118.614ZM83.6956 118.614C83.6956 117.477 84.6206 116.556 85.7615 116.556H91.073C92.2133 116.556 93.1383 117.477 93.1383 118.614C93.1383 119.751 92.2133 120.672 91.073 120.672H85.7615C84.6206 120.672 83.6956 119.751 83.6956 118.614ZM84.2863 113.32C84.2863 112.183 85.2107 111.262 86.3516 111.262H91.6631C92.8034 111.262 93.7284 112.183 93.7284 113.32C93.7284 114.457 92.8034 115.379 91.6631 115.379H86.3516C85.2107 115.379 84.2863 114.457 84.2863 113.32ZM47.1068 118.614C47.1068 117.477 48.0318 116.556 49.1727 116.556H69.8272C70.9681 116.556 71.8931 117.477 71.8931 118.614C71.8931 119.751 70.9681 120.672 69.8272 120.672H49.1727C48.0318 120.672 47.1068 119.751 47.1068 118.614Z" fill="#615C67"/>
<path d="M104.941 103.027C105.267 103.027 105.532 103.29 105.532 103.615V107.144C105.532 107.468 105.267 107.732 104.941 107.732C104.616 107.732 104.351 107.468 104.351 107.144V103.615C104.351 103.29 104.616 103.027 104.941 103.027Z" fill="#615C67"/>
<path d="M114.974 4.20996H4.02637V77.7345H114.974V4.20996Z" fill="#BF56FF"/>
<path d="M114.974 63.8563C109.593 60.2479 104.213 56.6451 98.3314 55.1197C92.455 53.5943 86.0811 54.1568 79.9974 52.0647C73.9143 49.9768 68.1262 45.235 66.4295 39.2711C64.7378 33.3022 67.1374 26.1063 65.9075 20.0586C64.6832 14.0066 59.8244 9.10829 54.9706 4.20996H114.974V63.8563Z" fill="#AF3CFA"/>
<path d="M114.974 56.4005C110.267 53.2477 105.556 50.0893 100.412 48.7547C95.2675 47.425 89.6904 47.9141 84.3698 46.0806C79.0485 44.2525 73.9781 40.1068 72.498 34.8863C71.0123 29.6651 73.1175 23.3686 72.0404 18.0741C70.9682 12.7845 66.7191 8.49753 62.4701 4.20996H114.974V56.4005Z" fill="#9E3BEA"/>
<path d="M114.974 48.9454C110.936 46.242 106.904 43.5342 102.492 42.3946C98.0855 41.2507 93.3004 41.6664 88.7415 40.1019C84.1785 38.5331 79.8356 34.9786 78.5664 30.5058C77.293 26.0281 79.0976 20.6309 78.1781 16.0945C77.2531 11.5575 73.6144 7.88616 69.9702 4.20996H114.974V48.9454Z" fill="#7F37CB"/>
<path d="M114.974 41.4903C111.61 39.2368 108.246 36.9833 104.572 36.0302C100.899 35.0764 96.9151 35.4237 93.1132 34.1184C89.3126 32.8131 85.6923 29.851 84.6354 26.121C83.573 22.391 85.0782 17.8931 84.3109 14.1142C83.5435 10.3353 80.5047 7.2705 77.4696 4.20996H114.974V41.4903Z" fill="#6231AB"/>
<path d="M114.974 34.0352C112.284 32.2317 109.594 30.4275 106.653 29.6651C103.712 28.9022 100.525 29.1809 97.4862 28.1398C94.4413 27.0937 91.5497 24.7228 90.7038 21.7405C89.853 18.7533 91.0535 15.1554 90.4431 12.1346C89.8285 9.10829 87.3994 6.65913 84.9697 4.20996H114.974V34.0352Z" fill="#49298B"/>
<path d="M114.974 26.5753C112.957 25.226 110.936 23.8718 108.733 23.3001C106.53 22.7279 104.14 22.9382 101.858 22.1562C99.5753 21.3737 97.407 19.5946 96.7678 17.3557C96.1329 15.1212 97.0334 12.4232 96.5758 10.1544C96.1139 7.88616 94.294 6.04836 92.4746 4.20996H114.974V26.5753Z" fill="#32206B"/>
<path d="M114.974 19.1202C113.627 18.2208 112.284 17.3166 110.813 16.94C109.343 16.5585 107.749 16.6954 106.23 16.1727C104.71 15.6494 103.26 14.4664 102.836 12.9752C102.414 11.4841 103.013 9.68543 102.709 8.16983C102.399 6.65913 101.189 5.43699 99.9741 4.20996H114.974V19.1202Z" fill="#1F174C"/>
<path d="M114.974 11.6651C114.299 11.2157 113.627 10.7657 112.894 10.575C112.161 10.3842 111.364 10.4527 110.602 10.1935C109.839 9.92998 109.116 9.33817 108.905 8.59046C108.694 7.84703 108.994 6.9477 108.841 6.1902C108.689 5.43699 108.079 4.82134 107.474 4.20996H114.974V11.6651Z" fill="#110B2F"/>
<path d="M4.02637 18.0889C10.464 18.4459 16.8962 18.7981 22.5671 21.0076C28.2373 23.2171 33.1452 27.2748 38.1665 31.0292C43.1872 34.7788 48.3214 38.23 52.2858 42.8789C56.2545 47.5327 59.0473 53.3847 60.8084 59.3976C62.5688 65.4056 63.3019 71.5701 64.0294 77.7346H4.02637V18.0889Z" fill="#AF3CFA"/>
<path d="M4.02637 25.5439C9.6574 25.857 15.2884 26.1651 20.2502 28.0958C25.2127 30.032 29.5059 33.5811 33.8978 36.866C38.2892 40.1509 42.7842 43.1674 46.256 47.2349C49.723 51.3067 52.1674 56.43 53.7119 61.6847C55.251 66.945 55.8901 72.3422 56.5299 77.7345H4.02637V25.5439Z" fill="#9E3BEA"/>
<path d="M4.02637 32.999C8.85568 33.268 13.6801 33.5321 17.934 35.189C22.188 36.8464 25.8665 39.8874 29.6285 42.7028C33.3961 45.5187 37.2464 48.1049 40.222 51.5952C43.197 55.0806 45.2924 59.4709 46.61 63.978C47.9331 68.485 48.479 73.1101 49.0298 77.7345H4.02637V32.999Z" fill="#7F37CB"/>
<path d="M4.02637 40.4541C8.04906 40.6791 12.0717 40.8992 15.6129 42.2778C19.1584 43.6614 22.2272 46.1986 25.3648 48.5401C28.5023 50.8866 31.7092 53.0423 34.188 55.9512C36.6661 58.8595 38.4125 62.5162 39.5135 66.2706C40.6152 70.0306 41.0728 73.8822 41.5304 77.7345H4.02637V40.4541Z" fill="#6231AB"/>
<path d="M4.02637 47.9092C7.24243 48.0901 10.464 48.2662 13.2967 49.371C16.1343 50.4757 18.583 52.5043 21.0961 54.3818C23.6043 56.2587 26.1763 57.9797 28.1582 60.3066C30.1401 62.6335 31.5368 65.562 32.4171 68.5632C33.2973 71.57 33.6617 74.6501 34.0303 77.7345H4.02637V47.9092Z" fill="#49298B"/>
<path d="M4.02637 55.3691C6.44133 55.5012 8.85568 55.6333 10.9805 56.4592C13.1047 57.2901 14.9443 58.8106 16.8275 60.2186C18.7112 61.6266 20.6391 62.9221 22.1242 64.6626C23.6092 66.4075 24.6569 68.603 25.3206 70.8559C25.98 73.11 26.2554 75.4222 26.5253 77.7344H4.02637V55.3691Z" fill="#32206B"/>
<path d="M4.02637 62.8242C5.63471 62.9116 7.24243 63.0003 8.66369 63.5524C10.08 64.1044 11.305 65.1169 12.5588 66.0559C13.8181 66.9938 15.1013 67.8589 16.0901 69.0223C17.0832 70.1815 17.7819 71.6482 18.2193 73.1491C18.6621 74.65 18.8437 76.1944 19.0259 77.7344H4.02637V62.8242Z" fill="#1F174C"/>
<path d="M4.02637 70.2788C4.83299 70.3234 5.63471 70.3675 6.34257 70.6407C7.05105 70.9195 7.66568 71.4282 8.29503 71.8971C8.91948 72.3666 9.56416 72.7971 10.0604 73.3791C10.5524 73.9605 10.9014 74.6887 11.1228 75.4419C11.3443 76.1945 11.4375 76.9624 11.5258 77.7345H4.02637V70.2788Z" fill="#110B2F"/>
</g>
<defs>
<clipPath id="clip0_112_187">
<rect width="119" height="129" fill="white"/>
</clipPath>
</defs>
</svg>
