<?xml version="1.0" encoding="utf-8"?>
<svg width="454px" height="913px" viewBox="0 0 454 913" version="1.1" xmlns:xlink="http://www.w3.org/1999/xlink" xmlns="http://www.w3.org/2000/svg">
  <path d="M0 828L191 911L388.5 875L452 408.5L448.5 339.5L291.5 0L41.5 288.5L37 381.5L0 828Z" transform="translate(1 1)" id="New-shape" fill="none" fill-rule="evenodd" stroke="#808080" stroke-width="2" />
  <path d="M253 0L105 412L0 378L253 0Z" transform="translate(39 2)" id="New-shape-2" fill="none" fill-rule="evenodd" stroke="#808080" stroke-width="2" />
  <path d="M0 411L99 442L146.5 0L148 0L192 427L308 406" transform="translate(145 4)" id="New-shape-3" fill="none" fill-rule="evenodd" stroke="#808080" stroke-width="2" />
  <path d="M48 0L208.5 406L93.5 427.5L0 442.5" transform="translate(244.5 3.5)" id="New-shape-4" fill="none" fill-rule="evenodd" stroke="#808080" stroke-width="2" />
  <path d="M51 0L0 466L5.86578 412.403L102.5 324L207.5 348.5L196.5 424L92 399.5" transform="translate(193 445)" id="New-shape-5" fill="none" fill-rule="evenodd" stroke="#808080" stroke-width="2" />
  <path d="M278.5 92.5L192 104L97.5 0L0 4" transform="translate(7 752)" id="New-shape-6" fill="none" fill-rule="evenodd" stroke="#808080" stroke-width="2" />
  <path d="M0 13L99 0L198 40" transform="translate(1 816)" id="New-shape-7" fill="none" fill-rule="evenodd" stroke="#808080" stroke-width="2" />
  <path d="M102.5 369.5L0 338.5L39.5 0" transform="translate(104.5 413.5)" id="New-shape-8" fill="none" fill-rule="evenodd" stroke="#808080" stroke-width="2" />
  <path d="M129.5 0L88.5 338.5L0 352.5" transform="translate(207 430.5)" id="New-shape-9" fill="none" fill-rule="evenodd" stroke="#808080" stroke-width="2" />
</svg>
