<svg width="194" height="211" viewBox="0 0 194 211" fill="none" xmlns="http://www.w3.org/2000/svg">
<rect x="80" y="128" width="33" height="29" rx="5" fill="#454545"/>
<g filter="url(#filter0_d_37_144)">
<rect x="80" y="143" width="33" height="14" rx="3" fill="#2B2B2B"/>
</g>
<circle cx="97" cy="132" r="7" fill="#D9D9D9"/>
<rect width="194" height="131" rx="9" fill="black"/>
<g clip-path="url(#clip0_37_144)">
<path d="M194 3H3V131H194V3Z" fill="#0B0021"/>
<path d="M194 106.838C184.738 100.557 175.476 94.2851 165.35 91.6298C155.233 88.9745 144.26 89.9532 133.788 86.3106C123.315 82.6766 113.35 74.4213 110.429 64.0383C107.517 53.6468 111.648 41.1191 109.532 30.5915C107.423 20.0553 99.0588 11.5277 90.7025 3H194V106.838Z" fill="#110B2F"/>
<path d="M194 93.8596C185.898 88.3702 177.787 82.8723 168.931 80.5489C160.075 78.234 150.475 79.0851 141.314 75.8936C132.154 72.7106 123.425 65.4936 120.876 56.4043C118.32 47.3149 121.943 36.3532 120.089 27.1362C118.243 17.9277 110.929 10.4638 103.614 3H194V93.8596Z" fill="#1F174C"/>
<path d="M194 80.8809C187.049 76.1745 180.107 71.4596 172.513 69.4766C164.927 67.4851 156.689 68.2085 148.841 65.4851C140.984 62.7532 133.508 56.566 131.324 48.7787C129.131 40.983 132.238 31.5872 130.655 23.6894C129.063 15.7915 122.798 9.4 116.525 3H194V80.8809Z" fill="#32206B"/>
<path d="M194 67.9021C188.209 63.9787 182.418 60.0553 176.094 58.3957C169.769 56.7362 162.912 57.3404 156.367 55.0681C149.823 52.7957 143.592 47.6383 141.771 41.1447C139.943 34.6511 142.533 26.8213 141.213 20.2426C139.892 13.6638 134.66 8.32766 129.436 3H194V67.9021Z" fill="#49298B"/>
<path d="M194 54.9234C189.369 51.783 184.738 48.6426 179.675 47.3149C174.612 45.9872 169.126 46.4723 163.894 44.6596C158.653 42.8383 153.675 38.7106 152.219 33.5191C150.754 28.3191 152.82 22.0553 151.77 16.7957C150.712 11.5277 146.529 7.26383 142.347 3H194V54.9234Z" fill="#6231AB"/>
<path d="M194 41.9362C190.529 39.5872 187.049 37.2298 183.256 36.234C179.463 35.2383 175.349 35.6043 171.42 34.2426C167.492 32.8809 163.758 29.783 162.658 25.8851C161.566 21.9957 163.115 17.2979 162.328 13.3489C161.532 9.4 158.399 6.2 155.267 3H194V41.9362Z" fill="#7F37CB"/>
<path d="M194 28.9574C191.68 27.3915 189.369 25.817 186.837 25.1617C184.306 24.4979 181.563 24.7362 178.947 23.8255C176.331 22.9149 173.833 20.8553 173.105 18.2596C172.377 15.6638 173.41 12.5319 172.885 9.89362C172.352 7.26383 170.269 5.13617 168.178 3H194V28.9574Z" fill="#9E3BEA"/>
<path d="M194 15.9787C192.84 15.1957 191.68 14.4128 190.419 14.0809C189.157 13.7489 187.786 13.8681 186.473 13.417C185.161 12.9574 183.917 11.9277 183.553 10.6255C183.189 9.33191 183.705 7.76596 183.443 6.44681C183.18 5.13617 182.13 4.06383 181.089 3H194V15.9787Z" fill="#AF3CFA"/>
<path d="M3 27.1616C14.0824 27.7829 25.1563 28.3957 34.918 32.2425C44.6797 36.0893 53.129 43.1531 61.7731 49.6893C70.4172 56.2169 79.2561 62.2254 86.0799 70.3191C92.9122 78.4212 97.7211 88.6084 100.752 99.0765C103.783 109.536 105.044 120.268 106.297 131H3V27.1616Z" fill="#110B2F"/>
<path d="M3 40.1404C12.6939 40.6851 22.3879 41.2212 30.9304 44.5829C39.4729 47.9531 46.864 54.1319 54.4244 59.851C61.9848 65.5702 69.723 70.8212 75.7002 77.9021C81.669 84.9914 85.8767 93.9106 88.5352 103.06C91.1851 112.217 92.2857 121.613 93.3863 131H3V40.1404Z" fill="#1F174C"/>
<path d="M3 53.1191C11.3139 53.5872 19.6194 54.0468 26.9427 56.9319C34.2661 59.817 40.5989 65.1106 47.0756 70.0128C53.5608 74.9149 60.1899 79.417 65.3121 85.4936C70.4342 91.5617 74.0408 99.2042 76.3098 107.051C78.5872 114.898 79.527 122.949 80.4752 131H3V53.1191Z" fill="#32206B"/>
<path d="M3 66.0979C9.92544 66.4894 16.8509 66.8724 22.9466 69.2724C29.0508 71.6809 34.3338 76.0979 39.7353 80.1745C45.1368 84.2596 50.6569 88.0128 54.9239 93.0766C59.1909 98.1405 62.1965 104.506 64.0929 111.043C65.9894 117.587 66.7767 124.294 67.5641 131H3V66.0979Z" fill="#49298B"/>
<path d="M3 79.0764C8.53697 79.3913 14.0824 79.6977 18.959 81.6211C23.8441 83.5445 28.0603 87.0764 32.3866 90.3445C36.7044 93.6126 41.1323 96.6083 44.5442 100.659C47.9561 104.71 50.3605 109.808 51.876 115.034C53.3915 120.268 54.018 125.63 54.653 131H3V79.0764Z" fill="#6231AB"/>
<path d="M3 92.0637C7.15696 92.2935 11.3139 92.5233 14.9714 93.9616C18.6288 95.4084 21.7952 98.0552 25.0378 100.506C28.2804 102.957 31.5992 105.213 34.156 108.242C36.7129 111.281 38.5162 115.102 39.6591 119.025C40.7936 122.949 41.2677 126.974 41.7334 131H3V92.0637Z" fill="#7F37CB"/>
<path d="M3 105.042C5.76848 105.196 8.53697 105.349 10.9837 106.311C13.422 107.272 15.5301 109.034 17.6891 110.668C19.8564 112.302 22.0661 113.808 23.7679 115.834C25.4781 117.851 26.6803 120.404 27.4338 123.017C28.1957 125.63 28.509 128.319 28.8223 131H3V105.042Z" fill="#9E3BEA"/>
<path d="M3 118.021C4.38848 118.098 5.76848 118.174 6.98763 118.651C8.20678 119.136 9.26507 120.021 10.3488 120.838C11.424 121.655 12.5331 122.404 13.3882 123.417C14.2348 124.43 14.8359 125.698 15.2169 127.008C15.5979 128.319 15.7587 129.655 15.9111 131H3V118.021Z" fill="#AF3CFA"/>
</g>
<g filter="url(#filter1_di_37_144)">
<rect x="165" y="174" width="18" height="28" rx="9" fill="#28252D"/>
</g>
<rect x="165" y="171" width="18" height="28" rx="9" fill="#3D3846"/>
<g filter="url(#filter2_d_37_144)">
<g filter="url(#filter3_i_37_144)">
<rect x="37" y="167" width="121" height="40" rx="6" fill="#221F27"/>
</g>
<rect x="37" y="164" width="121" height="40" rx="6" fill="#3D3846"/>
<circle cx="43.5" cy="170.5" r="3.5" fill="#615C67"/>
<circle cx="52.5" cy="170.5" r="3.5" fill="#615C67"/>
<path d="M61 179.355C61 181.288 59.433 182.855 57.5 182.855C55.567 182.855 54 181.288 54 179.355C54 177.422 55.567 175.855 57.5 175.855C59.433 175.855 61 177.422 61 179.355Z" fill="#615C67"/>
<path d="M65 188.5C65 190.433 63.433 192 61.5 192C59.567 192 58 190.433 58 188.5C58 186.567 59.567 185 61.5 185C63.433 185 65 186.567 65 188.5Z" fill="#615C67"/>
<path d="M47.5 197.5C47.5 199.433 45.933 201 44 201C42.067 201 40.5 199.433 40.5 197.5C40.5 195.567 42.067 194 44 194C45.933 194 47.5 195.567 47.5 197.5Z" fill="#615C67"/>
<path d="M136 197.5C136 199.433 134.433 201 132.5 201C130.567 201 129 199.433 129 197.5C129 195.567 130.567 194 132.5 194C134.433 194 136 195.567 136 197.5Z" fill="#615C67"/>
<path d="M56 197.5C56 199.433 54.433 201 52.5 201C50.567 201 49 199.433 49 197.5C49 195.567 50.567 194 52.5 194C54.433 194 56 195.567 56 197.5Z" fill="#615C67"/>
<path d="M127 197.5C127 199.433 125.433 201 123.5 201C121.567 201 120 199.433 120 197.5C120 195.567 121.567 194 123.5 194C125.433 194 127 195.567 127 197.5Z" fill="#615C67"/>
<path d="M74 188.5C74 190.433 72.433 192 70.5 192C68.567 192 67 190.433 67 188.5C67 186.567 68.567 185 70.5 185C72.433 185 74 186.567 74 188.5Z" fill="#615C67"/>
<path d="M83 188.5C83 190.433 81.433 192 79.5 192C77.567 192 76 190.433 76 188.5C76 186.567 77.567 185 79.5 185C81.433 185 83 186.567 83 188.5Z" fill="#615C67"/>
<path d="M92 188.5C92 190.433 90.433 192 88.5 192C86.567 192 85 190.433 85 188.5C85 186.567 86.567 185 88.5 185C90.433 185 92 186.567 92 188.5Z" fill="#615C67"/>
<path d="M101 188.5C101 190.433 99.433 192 97.5 192C95.567 192 94 190.433 94 188.5C94 186.567 95.567 185 97.5 185C99.433 185 101 186.567 101 188.5Z" fill="#615C67"/>
<path d="M110 188.5C110 190.433 108.433 192 106.5 192C104.567 192 103 190.433 103 188.5C103 186.567 104.567 185 106.5 185C108.433 185 110 186.567 110 188.5Z" fill="#615C67"/>
<path d="M119 188.5C119 190.433 117.433 192 115.5 192C113.567 192 112 190.433 112 188.5C112 186.567 113.567 185 115.5 185C117.433 185 119 186.567 119 188.5Z" fill="#615C67"/>
<path d="M128 188.5C128 190.433 126.433 192 124.5 192C122.567 192 121 190.433 121 188.5C121 186.567 122.567 185 124.5 185C126.433 185 128 186.567 128 188.5Z" fill="#615C67"/>
<path d="M137 188.5C137 190.433 135.433 192 133.5 192C131.567 192 130 190.433 130 188.5C130 186.567 131.567 185 133.5 185C135.433 185 137 186.567 137 188.5Z" fill="#615C67"/>
<circle cx="66.5" cy="179.5" r="3.5" fill="#615C67"/>
<circle cx="75.5" cy="179.5" r="3.5" fill="#615C67"/>
<circle cx="84.5" cy="179.5" r="3.5" fill="#615C67"/>
<circle cx="93.5" cy="179.5" r="3.5" fill="#615C67"/>
<circle cx="102.5" cy="179.5" r="3.5" fill="#615C67"/>
<circle cx="111.5" cy="179.5" r="3.5" fill="#615C67"/>
<circle cx="120.5" cy="179.5" r="3.5" fill="#615C67"/>
<circle cx="129.5" cy="179.5" r="3.5" fill="#615C67"/>
<circle cx="138.5" cy="179.5" r="3.5" fill="#615C67"/>
<circle cx="61.5" cy="170.5" r="3.5" fill="#615C67"/>
<circle cx="70.5" cy="170.5" r="3.5" fill="#615C67"/>
<circle cx="79.5" cy="170.5" r="3.5" fill="#615C67"/>
<circle cx="88.5" cy="170.5" r="3.5" fill="#615C67"/>
<circle cx="97.5" cy="170.5" r="3.5" fill="#615C67"/>
<circle cx="106.5" cy="170.5" r="3.5" fill="#615C67"/>
<circle cx="115.5" cy="170.5" r="3.5" fill="#615C67"/>
<circle cx="124.5" cy="170.5" r="3.5" fill="#615C67"/>
<circle cx="133.5" cy="170.5" r="3.5" fill="#615C67"/>
<circle cx="142.5" cy="170.5" r="3.5" fill="#615C67"/>
<circle cx="151.5" cy="170.5" r="3.5" fill="#615C67"/>
<path d="M144 179.5C144 177.567 145.567 176 147.5 176H151.5C153.433 176 155 177.567 155 179.5V179.5C155 181.433 153.433 183 151.5 183H147.5C145.567 183 144 181.433 144 179.5V179.5Z" fill="#615C67"/>
<path d="M41 179.5C41 177.567 42.567 176 44.5 176H48.5C50.433 176 52 177.567 52 179.5V179.5C52 181.433 50.433 183 48.5 183H44.5C42.567 183 41 181.433 41 179.5V179.5Z" fill="#615C67"/>
<path d="M40 188.5C40 186.567 41.567 185 43.5 185H52.5C54.433 185 56 186.567 56 188.5V188.5C56 190.433 54.433 192 52.5 192H43.5C41.567 192 40 190.433 40 188.5V188.5Z" fill="#615C67"/>
<path d="M58 197.5C58 195.567 59.567 194 61.5 194H70.5C72.433 194 74 195.567 74 197.5V197.5C74 199.433 72.433 201 70.5 201H61.5C59.567 201 58 199.433 58 197.5V197.5Z" fill="#615C67"/>
<path d="M138 197.5C138 195.567 139.567 194 141.5 194H150.5C152.433 194 154 195.567 154 197.5V197.5C154 199.433 152.433 201 150.5 201H141.5C139.567 201 138 199.433 138 197.5V197.5Z" fill="#615C67"/>
<path d="M139 188.5C139 186.567 140.567 185 142.5 185H151.5C153.433 185 155 186.567 155 188.5V188.5C155 190.433 153.433 192 151.5 192H142.5C140.567 192 139 190.433 139 188.5V188.5Z" fill="#615C67"/>
<path d="M76 197.5C76 195.567 77.567 194 79.5 194H114.5C116.433 194 118 195.567 118 197.5V197.5C118 199.433 116.433 201 114.5 201H79.5C77.567 201 76 199.433 76 197.5V197.5Z" fill="#615C67"/>
</g>
<rect x="173" y="171" width="2" height="8" rx="1" fill="#615C67"/>
<defs>
<filter id="filter0_d_37_144" x="78" y="143" width="37" height="18" filterUnits="userSpaceOnUse" color-interpolation-filters="sRGB">
<feFlood flood-opacity="0" result="BackgroundImageFix"/>
<feColorMatrix in="SourceAlpha" type="matrix" values="0 0 0 0 0 0 0 0 0 0 0 0 0 0 0 0 0 0 127 0" result="hardAlpha"/>
<feOffset dy="2"/>
<feGaussianBlur stdDeviation="1"/>
<feComposite in2="hardAlpha" operator="out"/>
<feColorMatrix type="matrix" values="0 0 0 0 0 0 0 0 0 0 0 0 0 0 0 0 0 0 0.25 0"/>
<feBlend mode="normal" in2="BackgroundImageFix" result="effect1_dropShadow_37_144"/>
<feBlend mode="normal" in="SourceGraphic" in2="effect1_dropShadow_37_144" result="shape"/>
</filter>
<filter id="filter1_di_37_144" x="162" y="173" width="24" height="34" filterUnits="userSpaceOnUse" color-interpolation-filters="sRGB">
<feFlood flood-opacity="0" result="BackgroundImageFix"/>
<feColorMatrix in="SourceAlpha" type="matrix" values="0 0 0 0 0 0 0 0 0 0 0 0 0 0 0 0 0 0 127 0" result="hardAlpha"/>
<feOffset dy="2"/>
<feGaussianBlur stdDeviation="1.5"/>
<feComposite in2="hardAlpha" operator="out"/>
<feColorMatrix type="matrix" values="0 0 0 0 0 0 0 0 0 0 0 0 0 0 0 0 0 0 0.25 0"/>
<feBlend mode="normal" in2="BackgroundImageFix" result="effect1_dropShadow_37_144"/>
<feBlend mode="normal" in="SourceGraphic" in2="effect1_dropShadow_37_144" result="shape"/>
<feColorMatrix in="SourceAlpha" type="matrix" values="0 0 0 0 0 0 0 0 0 0 0 0 0 0 0 0 0 0 127 0" result="hardAlpha"/>
<feOffset dy="3"/>
<feGaussianBlur stdDeviation="2.5"/>
<feComposite in2="hardAlpha" operator="arithmetic" k2="-1" k3="1"/>
<feColorMatrix type="matrix" values="0 0 0 0 0.666667 0 0 0 0 0.666667 0 0 0 0 0.666667 0 0 0 0.25 0"/>
<feBlend mode="normal" in2="shape" result="effect2_innerShadow_37_144"/>
</filter>
<filter id="filter2_d_37_144" x="35" y="164" width="125" height="47" filterUnits="userSpaceOnUse" color-interpolation-filters="sRGB">
<feFlood flood-opacity="0" result="BackgroundImageFix"/>
<feColorMatrix in="SourceAlpha" type="matrix" values="0 0 0 0 0 0 0 0 0 0 0 0 0 0 0 0 0 0 127 0" result="hardAlpha"/>
<feOffset dy="2"/>
<feGaussianBlur stdDeviation="1"/>
<feComposite in2="hardAlpha" operator="out"/>
<feColorMatrix type="matrix" values="0 0 0 0 0 0 0 0 0 0 0 0 0 0 0 0 0 0 0.25 0"/>
<feBlend mode="normal" in2="BackgroundImageFix" result="effect1_dropShadow_37_144"/>
<feBlend mode="normal" in="SourceGraphic" in2="effect1_dropShadow_37_144" result="shape"/>
</filter>
<filter id="filter3_i_37_144" x="37" y="167" width="121" height="44" filterUnits="userSpaceOnUse" color-interpolation-filters="sRGB">
<feFlood flood-opacity="0" result="BackgroundImageFix"/>
<feBlend mode="normal" in="SourceGraphic" in2="BackgroundImageFix" result="shape"/>
<feColorMatrix in="SourceAlpha" type="matrix" values="0 0 0 0 0 0 0 0 0 0 0 0 0 0 0 0 0 0 127 0" result="hardAlpha"/>
<feOffset dy="4"/>
<feGaussianBlur stdDeviation="7.5"/>
<feComposite in2="hardAlpha" operator="arithmetic" k2="-1" k3="1"/>
<feColorMatrix type="matrix" values="0 0 0 0 1 0 0 0 0 1 0 0 0 0 1 0 0 0 0.07 0"/>
<feBlend mode="normal" in2="shape" result="effect1_innerShadow_37_144"/>
</filter>
<clipPath id="clip0_37_144">
<rect x="3" y="3" width="188" height="125" rx="9" fill="white"/>
</clipPath>
</defs>
</svg>
