<svg width="194" height="211" viewBox="0 0 194 211" fill="none" xmlns="http://www.w3.org/2000/svg">
<rect x="80" y="125" width="33" height="32" rx="5" fill="#F6F5F4"/>
<g filter="url(#filter0_d_39_59)">
<rect x="80" y="143" width="33" height="14" rx="3" fill="#C0BFBC"/>
</g>
<circle cx="97" cy="132" r="7" fill="#171717"/>
<rect width="194" height="131" rx="9" fill="#F6F5F4"/>
<g filter="url(#filter1_di_39_59)">
<rect x="165" y="174" width="18" height="28" rx="9" fill="#C0BFBC"/>
</g>
<rect x="165" y="171" width="18" height="28" rx="9" fill="#F6F5F4"/>
<g filter="url(#filter2_d_39_59)">
<g filter="url(#filter3_i_39_59)">
<rect x="37" y="167" width="121" height="40" rx="6" fill="#C0BFBC"/>
</g>
<rect x="37" y="164" width="121" height="40" rx="6" fill="#F3F3F3"/>
<circle cx="43.5" cy="170.5" r="3.5" fill="#615C67"/>
<circle cx="52.5" cy="170.5" r="3.5" fill="#615C67"/>
<path d="M61 179.355C61 181.288 59.433 182.855 57.5 182.855C55.567 182.855 54 181.288 54 179.355C54 177.422 55.567 175.855 57.5 175.855C59.433 175.855 61 177.422 61 179.355Z" fill="#615C67"/>
<path d="M65 188.5C65 190.433 63.433 192 61.5 192C59.567 192 58 190.433 58 188.5C58 186.567 59.567 185 61.5 185C63.433 185 65 186.567 65 188.5Z" fill="#615C67"/>
<path d="M47.5 197.5C47.5 199.433 45.933 201 44 201C42.067 201 40.5 199.433 40.5 197.5C40.5 195.567 42.067 194 44 194C45.933 194 47.5 195.567 47.5 197.5Z" fill="#615C67"/>
<path d="M136 197.5C136 199.433 134.433 201 132.5 201C130.567 201 129 199.433 129 197.5C129 195.567 130.567 194 132.5 194C134.433 194 136 195.567 136 197.5Z" fill="#615C67"/>
<path d="M56 197.5C56 199.433 54.433 201 52.5 201C50.567 201 49 199.433 49 197.5C49 195.567 50.567 194 52.5 194C54.433 194 56 195.567 56 197.5Z" fill="#615C67"/>
<path d="M127 197.5C127 199.433 125.433 201 123.5 201C121.567 201 120 199.433 120 197.5C120 195.567 121.567 194 123.5 194C125.433 194 127 195.567 127 197.5Z" fill="#615C67"/>
<path d="M74 188.5C74 190.433 72.433 192 70.5 192C68.567 192 67 190.433 67 188.5C67 186.567 68.567 185 70.5 185C72.433 185 74 186.567 74 188.5Z" fill="#615C67"/>
<path d="M83 188.5C83 190.433 81.433 192 79.5 192C77.567 192 76 190.433 76 188.5C76 186.567 77.567 185 79.5 185C81.433 185 83 186.567 83 188.5Z" fill="#615C67"/>
<path d="M92 188.5C92 190.433 90.433 192 88.5 192C86.567 192 85 190.433 85 188.5C85 186.567 86.567 185 88.5 185C90.433 185 92 186.567 92 188.5Z" fill="#615C67"/>
<path d="M101 188.5C101 190.433 99.433 192 97.5 192C95.567 192 94 190.433 94 188.5C94 186.567 95.567 185 97.5 185C99.433 185 101 186.567 101 188.5Z" fill="#615C67"/>
<path d="M110 188.5C110 190.433 108.433 192 106.5 192C104.567 192 103 190.433 103 188.5C103 186.567 104.567 185 106.5 185C108.433 185 110 186.567 110 188.5Z" fill="#615C67"/>
<path d="M119 188.5C119 190.433 117.433 192 115.5 192C113.567 192 112 190.433 112 188.5C112 186.567 113.567 185 115.5 185C117.433 185 119 186.567 119 188.5Z" fill="#615C67"/>
<path d="M128 188.5C128 190.433 126.433 192 124.5 192C122.567 192 121 190.433 121 188.5C121 186.567 122.567 185 124.5 185C126.433 185 128 186.567 128 188.5Z" fill="#615C67"/>
<path d="M137 188.5C137 190.433 135.433 192 133.5 192C131.567 192 130 190.433 130 188.5C130 186.567 131.567 185 133.5 185C135.433 185 137 186.567 137 188.5Z" fill="#615C67"/>
<circle cx="66.5" cy="179.5" r="3.5" fill="#615C67"/>
<circle cx="75.5" cy="179.5" r="3.5" fill="#615C67"/>
<circle cx="84.5" cy="179.5" r="3.5" fill="#615C67"/>
<circle cx="93.5" cy="179.5" r="3.5" fill="#615C67"/>
<circle cx="102.5" cy="179.5" r="3.5" fill="#615C67"/>
<circle cx="111.5" cy="179.5" r="3.5" fill="#615C67"/>
<circle cx="120.5" cy="179.5" r="3.5" fill="#615C67"/>
<circle cx="129.5" cy="179.5" r="3.5" fill="#615C67"/>
<circle cx="138.5" cy="179.5" r="3.5" fill="#615C67"/>
<circle cx="61.5" cy="170.5" r="3.5" fill="#615C67"/>
<circle cx="70.5" cy="170.5" r="3.5" fill="#615C67"/>
<circle cx="79.5" cy="170.5" r="3.5" fill="#615C67"/>
<circle cx="88.5" cy="170.5" r="3.5" fill="#615C67"/>
<circle cx="97.5" cy="170.5" r="3.5" fill="#615C67"/>
<circle cx="106.5" cy="170.5" r="3.5" fill="#615C67"/>
<circle cx="115.5" cy="170.5" r="3.5" fill="#615C67"/>
<circle cx="124.5" cy="170.5" r="3.5" fill="#615C67"/>
<circle cx="133.5" cy="170.5" r="3.5" fill="#615C67"/>
<circle cx="142.5" cy="170.5" r="3.5" fill="#615C67"/>
<circle cx="151.5" cy="170.5" r="3.5" fill="#615C67"/>
<path d="M144 179.5C144 177.567 145.567 176 147.5 176H151.5C153.433 176 155 177.567 155 179.5V179.5C155 181.433 153.433 183 151.5 183H147.5C145.567 183 144 181.433 144 179.5V179.5Z" fill="#615C67"/>
<path d="M41 179.5C41 177.567 42.567 176 44.5 176H48.5C50.433 176 52 177.567 52 179.5V179.5C52 181.433 50.433 183 48.5 183H44.5C42.567 183 41 181.433 41 179.5V179.5Z" fill="#615C67"/>
<path d="M40 188.5C40 186.567 41.567 185 43.5 185H52.5C54.433 185 56 186.567 56 188.5V188.5C56 190.433 54.433 192 52.5 192H43.5C41.567 192 40 190.433 40 188.5V188.5Z" fill="#615C67"/>
<path d="M58 197.5C58 195.567 59.567 194 61.5 194H70.5C72.433 194 74 195.567 74 197.5V197.5C74 199.433 72.433 201 70.5 201H61.5C59.567 201 58 199.433 58 197.5V197.5Z" fill="#615C67"/>
<path d="M138 197.5C138 195.567 139.567 194 141.5 194H150.5C152.433 194 154 195.567 154 197.5V197.5C154 199.433 152.433 201 150.5 201H141.5C139.567 201 138 199.433 138 197.5V197.5Z" fill="#615C67"/>
<path d="M139 188.5C139 186.567 140.567 185 142.5 185H151.5C153.433 185 155 186.567 155 188.5V188.5C155 190.433 153.433 192 151.5 192H142.5C140.567 192 139 190.433 139 188.5V188.5Z" fill="#615C67"/>
<path d="M76 197.5C76 195.567 77.567 194 79.5 194H114.5C116.433 194 118 195.567 118 197.5V197.5C118 199.433 116.433 201 114.5 201H79.5C77.567 201 76 199.433 76 197.5V197.5Z" fill="#615C67"/>
</g>
<rect x="173" y="171" width="2" height="8" rx="1" fill="#615C67"/>
<g clip-path="url(#clip0_39_59)">
<path d="M191 3H3V128H191V3Z" fill="#BF56FF"/>
<path d="M191 104.405C181.883 98.2709 172.767 92.1456 162.8 89.5525C152.842 86.9594 142.042 87.9152 131.733 84.358C121.425 80.8092 111.617 72.7473 108.742 62.6077C105.875 52.4598 109.942 40.2257 107.858 29.9448C105.783 19.6556 97.55 11.3278 89.325 3H191V104.405Z" fill="#AF3CFA"/>
<path d="M191 91.7301C183.025 86.3693 175.042 81.0003 166.325 78.7314C157.608 76.4707 148.158 77.3019 139.142 74.1852C130.125 71.0768 121.533 64.0289 119.025 55.1526C116.508 46.2763 120.075 35.5715 118.25 26.5705C116.433 17.5778 109.233 10.2889 102.033 3H191V91.7301Z" fill="#9E3BEA"/>
<path d="M191 79.0555C184.158 74.4594 177.325 69.8551 169.85 67.9185C162.383 65.9737 154.275 66.6802 146.55 64.0206C138.817 61.3527 131.458 55.3105 129.308 47.7058C127.15 40.0928 130.208 30.9172 128.65 23.2045C127.083 15.4917 120.917 9.25 114.742 3H191V79.0555Z" fill="#7F37CB"/>
<path d="M191 66.381C185.3 62.5495 179.6 58.7181 173.375 57.0974C167.15 55.4767 160.4 56.0668 153.958 53.8477C147.517 51.6287 141.383 46.5921 139.592 40.2507C137.792 33.9092 140.342 26.263 139.042 19.8384C137.742 13.4139 132.592 8.20279 127.45 3H191V66.381Z" fill="#6231AB"/>
<path d="M191 53.7064C186.442 50.6396 181.883 47.5728 176.9 46.2763C171.917 44.9797 166.517 45.4535 161.367 43.6832C156.208 41.9046 151.308 37.8737 149.875 32.8039C148.433 27.7257 150.467 21.6087 149.433 16.4724C148.392 11.3278 144.275 7.1639 140.158 3H191V53.7064Z" fill="#49298B"/>
<path d="M191 41.0236C187.583 38.7297 184.158 36.4275 180.425 35.4551C176.692 34.4827 172.642 34.8401 168.775 33.5103C164.908 32.1805 161.233 29.1553 160.15 25.3487C159.075 21.5505 160.6 16.9628 159.825 13.1064C159.042 9.25 155.958 6.125 152.875 3H191V41.0236Z" fill="#32206B"/>
<path d="M191 28.3491C188.717 26.8198 186.442 25.2822 183.95 24.6423C181.458 23.994 178.758 24.2267 176.183 23.3374C173.608 22.4481 171.15 20.4368 170.433 17.9019C169.717 15.367 170.733 12.3085 170.217 9.73205C169.692 7.1639 167.642 5.0861 165.583 3H191V28.3491Z" fill="#1F174C"/>
<path d="M191 15.6745C189.858 14.9099 188.717 14.1453 187.475 13.8211C186.233 13.497 184.883 13.6134 183.592 13.1729C182.3 12.7241 181.075 11.7184 180.717 10.4468C180.358 9.18351 180.867 7.65425 180.608 6.36602C180.35 5.0861 179.317 4.0389 178.292 3H191V15.6745Z" fill="#110B2F"/>
<path d="M3 26.5955C13.9083 27.2022 24.8083 27.8006 34.4167 31.5572C44.025 35.3139 52.3417 42.2121 60.85 48.5951C69.3583 54.9698 78.0583 60.8375 84.775 68.7414C91.5 76.6536 96.2333 86.6021 99.2167 96.8248C102.2 107.039 103.442 117.52 104.675 128H3V26.5955Z" fill="#AF3CFA"/>
<path d="M3 39.27C12.5417 39.8019 22.0833 40.3255 30.4917 43.6085C38.9 46.8997 46.175 52.9336 53.6167 58.5187C61.0583 64.1038 68.675 69.2318 74.5583 76.1467C80.4333 83.0699 84.575 91.78 87.1917 100.714C89.8 109.657 90.8833 118.833 91.9667 128H3V39.27Z" fill="#9E3BEA"/>
<path d="M3 51.9446C11.1833 52.4017 19.3583 52.8505 26.5667 55.668C33.775 58.4855 40.0083 63.655 46.3833 68.4423C52.7667 73.2295 59.2917 77.6261 64.3333 83.5603C69.375 89.4861 72.925 96.9496 75.1583 104.612C77.4 112.275 78.325 120.138 79.2583 128H3V51.9446Z" fill="#7F37CB"/>
<path d="M3 64.6191C9.81667 65.0015 16.6333 65.3755 22.6333 67.7192C28.6417 70.0713 33.8417 74.3848 39.1583 78.3658C44.475 82.3552 49.9083 86.0204 54.1083 90.9656C58.3083 95.9107 61.2667 102.127 63.1333 108.51C65 114.902 65.775 121.451 66.55 128H3V64.6191Z" fill="#6231AB"/>
<path d="M3 77.2935C8.45 77.601 13.9083 77.9002 18.7083 79.7785C23.5167 81.6568 27.6667 85.106 31.925 88.2974C36.175 91.4889 40.5333 94.4145 43.8917 98.3706C47.25 102.327 49.6167 107.305 51.1083 112.408C52.6 117.52 53.2167 122.756 53.8417 128H3V77.2935Z" fill="#49298B"/>
<path d="M3 89.9763C7.09167 90.2007 11.1833 90.4251 14.7833 91.8297C18.3833 93.2426 21.5 95.8274 24.6917 98.221C27.8833 100.615 31.15 102.817 33.6667 105.776C36.1833 108.743 37.9583 112.475 39.0833 116.306C40.2 120.138 40.6667 124.069 41.125 128H3V89.9763Z" fill="#32206B"/>
<path d="M3 102.651C5.725 102.8 8.45 102.95 10.8583 103.889C13.2583 104.828 15.3333 106.549 17.4583 108.145C19.5917 109.74 21.7667 111.211 23.4417 113.189C25.125 115.159 26.3083 117.653 27.05 120.204C27.8 122.756 28.1083 125.382 28.4167 128H3V102.651Z" fill="#1F174C"/>
<path d="M3 115.325C4.36667 115.4 5.725 115.475 6.925 115.94C8.125 116.414 9.16667 117.279 10.2333 118.076C11.2917 118.874 12.3833 119.606 13.225 120.595C14.0583 121.584 14.65 122.822 15.025 124.102C15.4 125.382 15.5583 126.687 15.7083 128H3V115.325Z" fill="#110B2F"/>
</g>
<defs>
<filter id="filter0_d_39_59" x="78" y="143" width="37" height="18" filterUnits="userSpaceOnUse" color-interpolation-filters="sRGB">
<feFlood flood-opacity="0" result="BackgroundImageFix"/>
<feColorMatrix in="SourceAlpha" type="matrix" values="0 0 0 0 0 0 0 0 0 0 0 0 0 0 0 0 0 0 127 0" result="hardAlpha"/>
<feOffset dy="2"/>
<feGaussianBlur stdDeviation="1"/>
<feComposite in2="hardAlpha" operator="out"/>
<feColorMatrix type="matrix" values="0 0 0 0 0 0 0 0 0 0 0 0 0 0 0 0 0 0 0.25 0"/>
<feBlend mode="normal" in2="BackgroundImageFix" result="effect1_dropShadow_39_59"/>
<feBlend mode="normal" in="SourceGraphic" in2="effect1_dropShadow_39_59" result="shape"/>
</filter>
<filter id="filter1_di_39_59" x="162" y="173" width="24" height="34" filterUnits="userSpaceOnUse" color-interpolation-filters="sRGB">
<feFlood flood-opacity="0" result="BackgroundImageFix"/>
<feColorMatrix in="SourceAlpha" type="matrix" values="0 0 0 0 0 0 0 0 0 0 0 0 0 0 0 0 0 0 127 0" result="hardAlpha"/>
<feOffset dy="2"/>
<feGaussianBlur stdDeviation="1.5"/>
<feComposite in2="hardAlpha" operator="out"/>
<feColorMatrix type="matrix" values="0 0 0 0 0 0 0 0 0 0 0 0 0 0 0 0 0 0 0.25 0"/>
<feBlend mode="normal" in2="BackgroundImageFix" result="effect1_dropShadow_39_59"/>
<feBlend mode="normal" in="SourceGraphic" in2="effect1_dropShadow_39_59" result="shape"/>
<feColorMatrix in="SourceAlpha" type="matrix" values="0 0 0 0 0 0 0 0 0 0 0 0 0 0 0 0 0 0 127 0" result="hardAlpha"/>
<feOffset dy="3"/>
<feGaussianBlur stdDeviation="2.5"/>
<feComposite in2="hardAlpha" operator="arithmetic" k2="-1" k3="1"/>
<feColorMatrix type="matrix" values="0 0 0 0 0.666667 0 0 0 0 0.666667 0 0 0 0 0.666667 0 0 0 0.25 0"/>
<feBlend mode="normal" in2="shape" result="effect2_innerShadow_39_59"/>
</filter>
<filter id="filter2_d_39_59" x="35" y="164" width="125" height="47" filterUnits="userSpaceOnUse" color-interpolation-filters="sRGB">
<feFlood flood-opacity="0" result="BackgroundImageFix"/>
<feColorMatrix in="SourceAlpha" type="matrix" values="0 0 0 0 0 0 0 0 0 0 0 0 0 0 0 0 0 0 127 0" result="hardAlpha"/>
<feOffset dy="2"/>
<feGaussianBlur stdDeviation="1"/>
<feComposite in2="hardAlpha" operator="out"/>
<feColorMatrix type="matrix" values="0 0 0 0 0 0 0 0 0 0 0 0 0 0 0 0 0 0 0.25 0"/>
<feBlend mode="normal" in2="BackgroundImageFix" result="effect1_dropShadow_39_59"/>
<feBlend mode="normal" in="SourceGraphic" in2="effect1_dropShadow_39_59" result="shape"/>
</filter>
<filter id="filter3_i_39_59" x="37" y="167" width="121" height="44" filterUnits="userSpaceOnUse" color-interpolation-filters="sRGB">
<feFlood flood-opacity="0" result="BackgroundImageFix"/>
<feBlend mode="normal" in="SourceGraphic" in2="BackgroundImageFix" result="shape"/>
<feColorMatrix in="SourceAlpha" type="matrix" values="0 0 0 0 0 0 0 0 0 0 0 0 0 0 0 0 0 0 127 0" result="hardAlpha"/>
<feOffset dy="4"/>
<feGaussianBlur stdDeviation="7.5"/>
<feComposite in2="hardAlpha" operator="arithmetic" k2="-1" k3="1"/>
<feColorMatrix type="matrix" values="0 0 0 0 1 0 0 0 0 1 0 0 0 0 1 0 0 0 0.07 0"/>
<feBlend mode="normal" in2="shape" result="effect1_innerShadow_39_59"/>
</filter>
<clipPath id="clip0_39_59">
<rect x="3" y="3" width="188" height="125" rx="9" fill="white"/>
</clipPath>
</defs>
</svg>
